# AST/ASF file generated using VICON BodyLanguage
# -----------------------------------------------
:version 1.10
:name VICON
:units
  mass 1.0
  length 0.1
  angle deg
:documentation
   .ast/.asf automatically generated from VICON data using
   VICON BodyBuilder and BodyLanguage model FULLBODY5.MOD
:root
   order TX TY TZ RZ RY RX
   axis XYZ
   position 0 0 0  
   orientation 0 -0 0 
:bonedata
  begin
     id 1 
     name lhipjoint
     direction 0.969109 -0.218487 0.11442 
     length 0.544217 
     axis 0 -0 0  XYZ
  end
  begin
     id 2 
     name lfemur
     direction 0.173648 -0.984808 0  
     length 1.81499  
     axis 0 -0 10  XYZ
    dof rx ry rz
    limits (-180.0 180.0)
           (-180.0 180.0)
           (-180.0 180.0)
  end
  begin
     id 3 
     name ltibia
     direction 0.173515 -0.984831 0   
     length 1.55296   
     axis 0 -0 10   XYZ
    dof rx ry rz
    limits (-180.0 180.0)
           (-180.0 180.0)
           (-180.0 180.0)
  end
  begin
     id 4 
     name lfoot
     direction 7.36097e-012 -0.333012 0.942922   
     length 0.509062   
     axis -90 -1.73656e-015 10   XYZ
    dof rx ry rz
    limits (-180.0 180.0)
           (-180.0 180.0)
           (-180.0 180.0)
  end
  begin
     id 5 
     name ltoes
     direction 7.7847e-012 -4.42403e-011 1   
     length 0.249732   
     axis -90 -1.73656e-015 10   XYZ
    dof rx ry rz
    limits (-180.0 180.0)
           (-180.0 180.0)
           (-180.0 180.0)
  end
  begin
     id 6 
     name rhipjoint
     direction -0.966745 -0.226554 0.118645   
     length 0.524838  
     axis 0 -0 0  XYZ 
  end
  begin
     id 7 
     name rfemur
     direction -0.173648 -0.984808 0   
     length 1.84625   
     axis 0 -0 -10   XYZ
    dof rx ry rz
    limits (-180.0 180.0)
           (-180.0 180.0)
           (-180.0 180.0)
  end
  begin
     id 8 
     name rtibia
     direction -0.173714 -0.984796 0   
     length 1.577   
     axis 0 -0 -10   XYZ
    dof rx ry rz
    limits (-180.0 180.0)
           (-180.0 180.0)
           (-180.0 180.0)
 end
 begin
     id 9 
     name rfoot
     direction -0.0183819 -0.0406144 0.999006   
     length 0.490111  
     axis -90 1.73656e-015 -10   XYZ
    dof rx ry rz
    limits (-180.0 180.0)
           (-180.0 180.0)
           (-180.0 180.0)
  end
  begin
     id 10 
     name rtoes
     direction -7.79087e-012 -4.42375e-011 1   
     length 0.245053   
     axis -90 1.73656e-015 -10   XYZ
    dof rx ry rz
    limits (-180.0 180.0)
           (-180.0 180.0)
           (-180.0 180.0)
  end
  begin
     id 11 
     name lowerback
     direction -0.0664844 0.980601 0.184393   
     length 0.458979   
     axis 0 -0 0   XYZ
    dof rx ry rz
    limits (-180.0 180.0)
           (-180.0 180.0)
           (-180.0 180.0)
  end
  begin
     id 12 
     name upperback
     direction 0.0135995 0.999573 0.02588   
     length 0.463983   
     axis 0 -0 0   XYZ
    dof rx ry rz
    limits (-180.0 180.0)
           (-180.0 180.0)
           (-180.0 180.0)
  end
  begin
     id 13 
     name thorax
     direction 0.0468402 0.997311 -0.0563691   
     length 0.482746   
     axis 0 -0 0   XYZ
    dof rx ry rz
    limits (-180.0 180.0)
           (-180.0 180.0)
           (-180.0 180.0)
  end
  begin
     id 14 
     name lowerneck
     direction -0.00174311 0.988586 -0.150647   
     length 0.364383   
     axis 0 -0 0   XYZ
    dof rx ry rz
    limits (-180.0 180.0)
           (-180.0 180.0)
           (-180.0 180.0)
  end
  begin
     id 15 
     name upperneck
     direction -0.02653 0.999379 -0.0231908   
     length 0.361006   
     axis 0 -0 0   XYZ
    dof rx ry rz
    limits (-180.0 180.0)
           (-180.0 180.0)
           (-180.0 180.0)
  end
  begin
     id 16
     name head
     direction -0.00819207 0.999941 0.00714285  
     length 0.378714  
     axis 0 -0 0   XYZ
    dof rx ry rz
    limits (-180.0 180.0)
           (-180.0 180.0)
           (-180.0 180.0)
  end
  begin
     id 17 
     name lshoulderjoint
     direction 0.981627 -0.190809 0  
     length 0.612969  
     axis 0 -0 -11   XYZ
    dof rx ry rz
    limits (-180.0 180.0)
           (-180.0 180.0)
           (-180.0 180.0)
  end
  begin
     id 18 
     name lhumerus
     direction 0.48481 -0.87462 -9.72962e-027   
     length 1.19637   
     axis -180 5.14477e-009 -151   XYZ
    dof rx ry rz
    limits (-180.0 180.0)
           (-180.0 180.0)
           (-180.0 180.0)
  end
  begin
     id 19
     name lradius
     direction 0.48481 -0.87462 -2.35761e-026   
     length 0.637735   
     axis -180 5.14477e-009 -151   XYZ
    dof rx ry rz
    limits (-180.0 180.0)
           (-180.0 180.0)
           (-180.0 180.0)
  end
  begin
     id 20
     name lwrist
     direction 0.48481 -0.87462 -5.51856e-026   
     length 0.318868   
     axis -180 5.14477e-009 -151   XYZ
    dof rx ry rz
    limits (-180.0 180.0)
           (-180.0 180.0)
           (-180.0 180.0)
  end
  begin
     id 21 
     name lhand
     direction 0.477747 -0.861928 -0.169816   
     length 0.29526   
     axis -180 5.14477e-009 -151   XYZ
    dof rx ry rz
    limits (-180.0 180.0)
           (-180.0 180.0)
           (-180.0 180.0)
  end
  begin
     id 22 
     name rshoulderjoint
     direction -0.981627 -0.190809 0   
     length 0.572347  
     axis 0 -0 11   XYZ 
    dof rx ry rz
    limits (-180.0 180.0)
           (-180.0 180.0)
           (-180.0 180.0)
  end
  begin
     id 23 
     name rhumerus
     direction -0.48481 -0.87462 1.64836e-026  
     length 1.28846   
     axis 180 5.14477e-009 151   XYZ
    dof rx ry rz
    limits (-180.0 180.0)
           (-180.0 180.0)
           (-180.0 180.0)
  end
  begin
     id 24 
     name rradius
     direction -0.48481 -0.87462 2.86827e-026   
     length 0.62107   
     axis 180 5.14477e-009 151   XYZ
    dof rx ry rz
    limits (-180.0 180.0)
           (-180.0 180.0)
           (-180.0 180.0)
  end
  begin
     id 25 
     name rwrist
     direction -0.48481 -0.87462 5.20942e-026   
     length 0.310535   
     axis 180 5.14477e-009 151   XYZ
    dof rx ry rz
    limits (-180.0 180.0)
           (-180.0 180.0)
           (-180.0 180.0)
  end
  begin
     id 26
     name rhand
     direction -0.477664 -0.861515 -0.172133   
     length 0.291321   
     axis 180 5.14477e-009 151   XYZ
    dof rx ry rz
    limits (-180.0 180.0)
           (-180.0 180.0)
           (-180.0 180.0)
  end
:hierarchy
  begin
    root lhipjoint rhipjoint lowerback 
    lhipjoint lfemur
    lfemur ltibia
    ltibia lfoot
    lfoot ltoes
    rhipjoint rfemur
    rfemur rtibia
    rtibia rfoot
    rfoot rtoes
    lowerback upperback
    upperback thorax
    thorax lowerneck lshoulderjoint rshoulderjoint
    lowerneck upperneck
    upperneck head
    lshoulderjoint lhumerus
    lhumerus lradius
    lradius lwrist
    lwrist lhand
    rshoulderjoint rhumerus
    rhumerus rradius
    rradius rwrist
    rwrist rhand
  end

:FULLY-SPECIFIED
:DEGREES
1844
root -7.56757 3.75113 -0.491779 286.063 68.8119 81.2976
lowerback -14.9438 -1.61297 -12.0167
upperback -5.77098 -0.100647 -0.569586
thorax 2.20342 0.212651 6.17013
lowerneck 11.6923 -1.99215 0.758797
upperneck 1.82644 -2.49889 -4.52875
head -1.49186 -1.06772 -1.45074
rshoulderjoint -2.50804 7.32216 -29.9669
rhumerus 348.089 -9.29571 -412.396
rradius 26.9996 5.00937e-014 1.78111e-013
rwrist -5.51887e-013 6.21267 3.35131e-013
rhand 5.96036 -5.18254 33.2275
lshoulderjoint -2.02024 -5.74803 30.4024
lhumerus 365.702 2.86483 414.976
lradius 23.3018 3.18055e-015 1.98785e-014
lwrist -4.76735e-013 -9.10973 -5.23442e-014
lhand 7.46632 7.39362 -36.1186
rfemur -45.8669 7.43316 1.92527
rtibia 36.1021 1.27222e-014 -1.19271e-014
rfoot -177.216 -54.0886 155.98
rtoes 1.90833e-014 1.69265e-013 -1.38354e-013
lfemur -11.3409 -10.0042 -22.0074
ltibia 3.49861e-014 6.36111e-015 -2.3059e-014
lfoot -9.24159 4.83954 12.7948
ltoes -1.47796e-013 1.42119e-013 1.00983e-013
1845
root -7.52571 3.74386 -0.491196 285.123 68.7042 82.3411
lowerback -15.0137 -1.74729 -12.2136
upperback -5.74788 -0.236514 -0.553104
thorax 2.28943 0.142217 6.27642
lowerneck 11.5413 -2.02083 0.814682
upperneck 1.72346 -2.5384 -4.51473
head -1.50099 -1.09035 -1.45466
rshoulderjoint -2.50639 7.32498 -29.9485
rhumerus 348.224 -9.60584 -412.348
rradius 26.8813 3.33958e-014 -8.11041e-014
rwrist -8.31565e-014 6.0427 -1.68712e-013
rhand 5.88174 -5.06562 33.2711
lshoulderjoint -2.01665 -5.7319 30.4208
lhumerus 366.385 2.14548 414.904
lradius 23.7501 2.14687e-014 5.00937e-014
lwrist 6.43898e-014 -8.92 8.09903e-014
lhand 7.44614 7.24565 -35.9093
rfemur -46.1721 7.54677 1.56308
rtibia 32.209 7.95139e-015 -4.37326e-015
rfoot -178.289 -55.2733 155.908
rtoes 2.8625e-014 -1.03964e-013 2.54444e-014
lfemur -10.8261 -10.3179 -22.1818
ltibia -1.90833e-014 1.59028e-015 -7.15625e-015
lfoot -9.77081 4.70632 12.7318
ltoes 6.06293e-014 3.01904e-015 3.89618e-014
1846
root -7.48106 3.73589 -0.490939 284.766 68.6714 82.7926
lowerback -15.1389 -1.80351 -12.3856
upperback -5.66046 -0.263972 -0.535362
thorax 2.45407 0.115769 6.38868
lowerneck 11.4091 -2.05108 0.828562
upperneck 1.60752 -2.58549 -4.49096
head -1.51682 -1.11663 -1.44768
rshoulderjoint -2.50952 7.33474 -29.9473
rhumerus 348.333 -10.0158 -412.273
rradius 26.7391 -9.54166e-015 -9.54166e-014
rwrist 6.01215e-013 5.97952 -2.24656e-013
rhand 5.82856 -4.97684 33.2684
lshoulderjoint -2.01312 -5.71827 30.4318
lhumerus 367.059 1.42792 414.837
lradius 24.1522 1.74931e-014 6.75868e-014
lwrist 7.04855e-013 -8.80841 2.19563e-013
lhand 7.4231 7.18015 -35.7265
rfemur -46.2291 7.86572 1.1314
rtibia 28.1184 -1.27222e-014 4.37326e-015
rfoot -179.635 -56.5002 156.168
rtoes -7.31528e-014 -2.91021e-013 1.11319e-014
lfemur -10.1301 -10.4227 -22.4128
ltibia -3.65764e-014 0 3.49861e-014
lfoot -10.3909 4.71729 12.6395
ltoes 2.49475e-014 -1.65097e-013 -6.79844e-014
1847
root -7.43598 3.72686 -0.490125 284.26 68.6223 83.4221
lowerback -15.2629 -1.89385 -12.6177
upperback -5.60118 -0.326379 -0.524559
thorax 2.59446 0.075894 6.52104
lowerneck 11.2722 -2.07718 0.884408
upperneck 1.56025 -2.61787 -4.4749
head -1.50989 -1.13562 -1.45122
rshoulderjoint -2.52035 7.38481 -29.9041
rhumerus 348.405 -10.4704 -412.184
rradius 26.5823 1.19271e-014 1.61413e-013
rwrist -1.7428e-013 5.95294 2.95796e-013
rhand 5.80694 -4.88697 33.2546
lshoulderjoint -2.01395 -5.71857 30.4384
lhumerus 367.669 0.764316 414.745
lradius 24.5217 1.74931e-014 1.08139e-013
lwrist -7.40211e-014 -8.78479 1.7817e-013
lhand 7.39336 7.18998 -35.5804
rfemur -46.1739 8.19618 0.61086
rtibia 23.8181 1.74931e-014 -2.0276e-014
rfoot -181.327 -57.7344 156.807
rtoes 3.18055e-015 2.0276e-013 -1.7175e-013
lfemur -9.44598 -10.5861 -22.6435
ltibia 1.74931e-014 1.74931e-014 -3.49861e-014
lfoot -10.9912 4.79109 12.5202
ltoes -9.26337e-014 1.52573e-013 3.69739e-014
1848
root -7.39018 3.71684 -0.489005 283.701 68.5484 84.1439
lowerback -15.6102 -1.99777 -12.8651
upperback -5.34235 -0.359959 -0.553612
thorax 3.0653 0.016534 6.62474
lowerneck 10.7583 -2.12083 0.996685
upperneck 1.47091 -2.67493 -4.46032
head -1.45223 -1.17374 -1.46542
rshoulderjoint -2.48416 7.28324 -29.8917
rhumerus 348.831 -10.5794 -412.173
rradius 26.4221 3.73715e-014 1.79701e-013
rwrist -7.84945e-013 5.87217 3.72489e-013
rhand 5.72444 -4.92764 33.2688
lshoulderjoint -1.97816 -5.58835 30.5287
lhumerus 368.632 0.0929326 414.704
lradius 24.8478 -1.11319e-014 -9.54166e-015
lwrist -7.20837e-013 -8.75171 -1.09765e-013
lhand 7.43845 7.10029 -35.4496
rfemur -45.9523 8.42888 0.0208504
rtibia 19.258 1.82882e-014 -1.27222e-014
rfoot -183.412 -58.9079 158.047
rtoes 1.30403e-013 1.70557e-013 -1.39944e-013
lfemur -8.77081 -10.7795 -22.8935
ltibia -9.54166e-015 0 -3.4191e-014
lfoot -11.5534 5.03499 12.3141
ltoes -1.2762e-013 1.72371e-013 7.43455e-014
